<svg width="128" height="128" viewBox="0 0 128 128" xmlns="http://www.w3.org/2000/svg">
  <defs>
    <!-- Gradient for main background -->
    <linearGradient id="bgGradient" x1="0%" y1="0%" x2="100%" y2="100%">
      <stop offset="0%" style="stop-color:#667eea;stop-opacity:1" />
      <stop offset="100%" style="stop-color:#764ba2;stop-opacity:1" />
    </linearGradient>
    
    <!-- Gradient for shield -->
    <linearGradient id="shieldGradient" x1="0%" y1="0%" x2="100%" y2="100%">
      <stop offset="0%" style="stop-color:#3498db;stop-opacity:1" />
      <stop offset="100%" style="stop-color:#2980b9;stop-opacity:1" />
    </linearGradient>
    
    <!-- Gradient for chart -->
    <linearGradient id="chartGradient" x1="0%" y1="100%" x2="0%" y2="0%">
      <stop offset="0%" style="stop-color:#27ae60;stop-opacity:1" />
      <stop offset="100%" style="stop-color:#2ecc71;stop-opacity:1" />
    </linearGradient>
    
    <!-- Shadow filter -->
    <filter id="shadow" x="-20%" y="-20%" width="140%" height="140%">
      <feDropShadow dx="2" dy="2" stdDeviation="3" flood-opacity="0.3"/>
    </filter>
  </defs>
  
  <!-- Background circle -->
  <circle cx="64" cy="64" r="60" fill="url(#bgGradient)" filter="url(#shadow)"/>
  
  <!-- Inner circle for contrast -->
  <circle cx="64" cy="64" r="52" fill="none" stroke="rgba(255,255,255,0.1)" stroke-width="1"/>
  
  <!-- Security Shield (representing access control) -->
  <g transform="translate(44, 20)">
    <path d="M20 8 L20 24 C20 32 16 36 10 38 C4 36 0 32 0 24 L0 8 C0 6 2 4 4 4 L16 4 C18 4 20 6 20 8 Z" 
          fill="url(#shieldGradient)" 
          filter="url(#shadow)"/>
    
    <!-- Lock icon in shield -->
    <rect x="7" y="16" width="6" height="8" rx="1" fill="white" opacity="0.9"/>
    <rect x="8.5" y="12" width="3" height="6" rx="1.5" fill="none" stroke="white" stroke-width="1.5" opacity="0.9"/>
  </g>
  
  <!-- Sales Chart (representing sales orders) -->
  <g transform="translate(20, 60)">
    <!-- Chart bars -->
    <rect x="0" y="20" width="8" height="15" fill="url(#chartGradient)" rx="1"/>
    <rect x="12" y="12" width="8" height="23" fill="url(#chartGradient)" rx="1"/>
    <rect x="24" y="8" width="8" height="27" fill="url(#chartGradient)" rx="1"/>
    <rect x="36" y="15" width="8" height="20" fill="url(#chartGradient)" rx="1"/>
    
    <!-- Chart line -->
    <polyline points="4,25 16,17 28,13 40,20" 
              fill="none" 
              stroke="#f39c12" 
              stroke-width="2" 
              stroke-linecap="round"/>
    
    <!-- Chart dots -->
    <circle cx="4" cy="25" r="2" fill="#f39c12"/>
    <circle cx="16" cy="17" r="2" fill="#f39c12"/>
    <circle cx="28" cy="13" r="2" fill="#f39c12"/>
    <circle cx="40" cy="20" r="2" fill="#f39c12"/>
  </g>
  
  <!-- Team collaboration icons (representing multiple users) -->
  <g transform="translate(75, 70)">
    <!-- Person 1 -->
    <circle cx="8" cy="8" r="4" fill="white" opacity="0.9"/>
    <ellipse cx="8" cy="20" rx="6" ry="4" fill="white" opacity="0.9"/>
    
    <!-- Person 2 (overlapping) -->
    <circle cx="18" cy="8" r="4" fill="rgba(255,255,255,0.8)"/>
    <ellipse cx="18" cy="20" rx="6" ry="4" fill="rgba(255,255,255,0.8)"/>
    
    <!-- Person 3 (overlapping) -->
    <circle cx="28" cy="8" r="4" fill="rgba(255,255,255,0.7)"/>
    <ellipse cx="28" cy="20" rx="6" ry="4" fill="rgba(255,255,255,0.7)"/>
  </g>
  
  <!-- Connection lines (representing access control) -->
  <g stroke="rgba(255,255,255,0.4)" stroke-width="1.5" fill="none" stroke-dasharray="3,3">
    <line x1="54" y1="45" x2="83" y2="78"/>
    <line x1="54" y1="45" x2="48" y2="75"/>
    <line x1="64" y1="50" x2="90" y2="82"/>
  </g>
  
  <!-- Accent dots for visual interest -->
  <circle cx="25" cy="35" r="2" fill="rgba(255,255,255,0.3)"/>
  <circle cx="102" cy="45" r="1.5" fill="rgba(255,255,255,0.4)"/>
  <circle cx="35" cy="100" r="1.5" fill="rgba(255,255,255,0.3)"/>
  
</svg>